<?xml version="1.0" encoding="UTF-8" standalone="no"?>
<!DOCTYPE svg PUBLIC "-//W3C//DTD SVG 1.1//EN"
 "http://www.w3.org/Graphics/SVG/1.1/DTD/svg11.dtd">
<!-- Generated by graphviz version 3.0.0 (20220226.1711)
 -->
<!-- Title: dependencies Pages: 1 -->
<svg width="641pt" height="174pt"
 viewBox="0.00 0.00 641.00 173.80" xmlns="http://www.w3.org/2000/svg" xmlns:xlink="http://www.w3.org/1999/xlink">
<g id="graph0" class="graph" transform="scale(1 1) rotate(0) translate(4 169.8)">
<title>dependencies</title>
<polygon fill="white" stroke="transparent" points="-4,4 -4,-169.8 637,-169.8 637,4 -4,4"/>
<text text-anchor="middle" x="316.5" y="-8.2" font-family="sans-serif" font-size="14.00">dependencies</text>
<g id="clust1" class="cluster">
<title>cluster_ModelModule</title>
<polygon fill="none" stroke="black" stroke-dasharray="1,5" points="8,-32.8 8,-157.8 625,-157.8 625,-32.8 8,-32.8"/>
</g>
<g id="clust6" class="cluster">
<title>cluster_ModelModule_providers</title>
<polygon fill="none" stroke="black" points="16,-40.8 16,-92.8 617,-92.8 617,-40.8 16,-40.8"/>
</g>
<!-- CartService -->
<g id="node1" class="node">
<title>CartService</title>
<ellipse fill="#fdb462" stroke="black" cx="552" cy="-66.8" rx="56.74" ry="18"/>
<text text-anchor="middle" x="552" y="-62.6" font-family="Times,serif" font-size="14.00">CartService</text>
</g>
<!-- ModelModule -->
<g id="node4" class="node">
<title>ModelModule</title>
<polygon fill="#8dd3c7" stroke="black" points="413.1,-149.8 410.1,-153.8 389.1,-153.8 386.1,-149.8 316.9,-149.8 316.9,-113.8 413.1,-113.8 413.1,-149.8"/>
<text text-anchor="middle" x="365" y="-127.6" font-family="Times,serif" font-size="14.00">ModelModule</text>
</g>
<!-- CartService&#45;&gt;ModelModule -->
<g id="edge1" class="edge">
<title>CartService&#45;&gt;ModelModule</title>
<path fill="none" stroke="black" d="M552,-84.91C552,-104.14 552,-131.8 552,-131.8 552,-131.8 423.16,-131.8 423.16,-131.8"/>
<polygon fill="black" stroke="black" points="423.16,-128.3 413.16,-131.8 423.16,-135.3 423.16,-128.3"/>
</g>
<!-- ProductRepositoryService -->
<g id="node2" class="node">
<title>ProductRepositoryService</title>
<ellipse fill="#fdb462" stroke="black" cx="365" cy="-66.8" rx="112.33" ry="18"/>
<text text-anchor="middle" x="365" y="-62.6" font-family="Times,serif" font-size="14.00">ProductRepositoryService</text>
</g>
<!-- ProductRepositoryService&#45;&gt;ModelModule -->
<g id="edge2" class="edge">
<title>ProductRepositoryService&#45;&gt;ModelModule</title>
<path fill="none" stroke="black" d="M365,-84.91C365,-84.91 365,-103.79 365,-103.79"/>
<polygon fill="black" stroke="black" points="361.5,-103.79 365,-113.79 368.5,-103.79 361.5,-103.79"/>
</g>
<!-- StaticDatasourceService -->
<g id="node3" class="node">
<title>StaticDatasourceService</title>
<ellipse fill="#fdb462" stroke="black" cx="129" cy="-66.8" rx="105.34" ry="18"/>
<text text-anchor="middle" x="129" y="-62.6" font-family="Times,serif" font-size="14.00">StaticDatasourceService</text>
</g>
<!-- StaticDatasourceService&#45;&gt;ModelModule -->
<g id="edge3" class="edge">
<title>StaticDatasourceService&#45;&gt;ModelModule</title>
<path fill="none" stroke="black" d="M129,-84.91C129,-104.14 129,-131.8 129,-131.8 129,-131.8 306.67,-131.8 306.67,-131.8"/>
<polygon fill="black" stroke="black" points="306.67,-135.3 316.67,-131.8 306.67,-128.3 306.67,-135.3"/>
</g>
</g>
</svg>
