<?xml version="1.0" encoding="UTF-8" standalone="no"?>
<!DOCTYPE svg PUBLIC "-//W3C//DTD SVG 1.1//EN"
 "http://www.w3.org/Graphics/SVG/1.1/DTD/svg11.dtd">
<!-- Generated by graphviz version 3.0.0 (20220226.1711)
 -->
<!-- Title: dependencies Pages: 1 -->
<svg width="457pt" height="247pt"
 viewBox="0.00 0.00 457.00 246.80" xmlns="http://www.w3.org/2000/svg" xmlns:xlink="http://www.w3.org/1999/xlink">
<g id="graph0" class="graph" transform="scale(1 1) rotate(0) translate(4 242.8)">
<title>dependencies</title>
<polygon fill="white" stroke="transparent" points="-4,4 -4,-242.8 453,-242.8 453,4 -4,4"/>
<text text-anchor="middle" x="224.5" y="-8.2" font-family="sans-serif" font-size="14.00">dependencies</text>
<g id="clust1" class="cluster">
<title>cluster_CoreModule</title>
<polygon fill="none" stroke="black" stroke-dasharray="1,5" points="8,-32.8 8,-230.8 441,-230.8 441,-32.8 8,-32.8"/>
</g>
<g id="clust6" class="cluster">
<title>cluster_CoreModule_exports</title>
<polygon fill="none" stroke="black" points="134,-170.8 134,-222.8 270,-222.8 270,-170.8 134,-170.8"/>
</g>
<g id="clust2" class="cluster">
<title>cluster_CoreModule_declarations</title>
<polygon fill="none" stroke="black" points="136,-40.8 136,-92.8 433,-92.8 433,-40.8 136,-40.8"/>
</g>
<g id="clust5" class="cluster">
<title>cluster_CoreModule_imports</title>
<polygon fill="none" stroke="black" points="16,-40.8 16,-92.8 128,-92.8 128,-40.8 16,-40.8"/>
</g>
<!-- CartSectionComponent -->
<g id="node1" class="node">
<title>CartSectionComponent</title>
<polygon fill="#ffffb3" stroke="black" points="424.93,-84.8 277.07,-84.8 277.07,-48.8 424.93,-48.8 424.93,-84.8"/>
<text text-anchor="middle" x="351" y="-62.6" font-family="Times,serif" font-size="14.00">CartSectionComponent</text>
</g>
<!-- CoreModule -->
<g id="node3" class="node">
<title>CoreModule</title>
<polygon fill="#8dd3c7" stroke="black" points="245.27,-149.8 242.27,-153.8 221.27,-153.8 218.27,-149.8 158.73,-149.8 158.73,-113.8 245.27,-113.8 245.27,-149.8"/>
<text text-anchor="middle" x="202" y="-127.6" font-family="Times,serif" font-size="14.00">CoreModule</text>
</g>
<!-- CartSectionComponent&#45;&gt;CoreModule -->
<g id="edge1" class="edge">
<title>CartSectionComponent&#45;&gt;CoreModule</title>
<path fill="none" stroke="black" d="M351,-84.91C351,-104.14 351,-131.8 351,-131.8 351,-131.8 255.5,-131.8 255.5,-131.8"/>
<polygon fill="black" stroke="black" points="255.5,-128.3 245.5,-131.8 255.5,-135.3 255.5,-128.3"/>
</g>
<!-- HomeComponent -->
<g id="node2" class="node">
<title>HomeComponent</title>
<polygon fill="#ffffb3" stroke="black" points="259.55,-84.8 144.45,-84.8 144.45,-48.8 259.55,-48.8 259.55,-84.8"/>
<text text-anchor="middle" x="202" y="-62.6" font-family="Times,serif" font-size="14.00">HomeComponent</text>
</g>
<!-- HomeComponent&#45;&gt;CoreModule -->
<g id="edge2" class="edge">
<title>HomeComponent&#45;&gt;CoreModule</title>
<path fill="none" stroke="black" d="M202,-84.91C202,-84.91 202,-103.79 202,-103.79"/>
<polygon fill="black" stroke="black" points="198.5,-103.79 202,-113.79 205.5,-103.79 198.5,-103.79"/>
</g>
<!-- HomeComponent  -->
<g id="node5" class="node">
<title>HomeComponent </title>
<polygon fill="#fb8072" stroke="black" points="261.54,-214.8 142.46,-214.8 142.46,-178.8 261.54,-178.8 261.54,-214.8"/>
<text text-anchor="middle" x="202" y="-192.6" font-family="Times,serif" font-size="14.00">HomeComponent </text>
</g>
<!-- CoreModule&#45;&gt;HomeComponent  -->
<g id="edge4" class="edge">
<title>CoreModule&#45;&gt;HomeComponent </title>
<path fill="none" stroke="black" stroke-dasharray="5,2" d="M202,-149.91C202,-149.91 202,-168.79 202,-168.79"/>
<polygon fill="black" stroke="black" points="198.5,-168.79 202,-178.79 205.5,-168.79 198.5,-168.79"/>
</g>
<!-- ModelModule -->
<g id="node4" class="node">
<title>ModelModule</title>
<polygon fill="#8dd3c7" stroke="black" points="120.1,-84.8 117.1,-88.8 96.1,-88.8 93.1,-84.8 23.9,-84.8 23.9,-48.8 120.1,-48.8 120.1,-84.8"/>
<text text-anchor="middle" x="72" y="-62.6" font-family="Times,serif" font-size="14.00">ModelModule</text>
</g>
<!-- ModelModule&#45;&gt;CoreModule -->
<g id="edge3" class="edge">
<title>ModelModule&#45;&gt;CoreModule</title>
<path fill="none" stroke="black" d="M72,-84.91C72,-104.14 72,-131.8 72,-131.8 72,-131.8 148.71,-131.8 148.71,-131.8"/>
<polygon fill="black" stroke="black" points="148.71,-135.3 158.71,-131.8 148.71,-128.3 148.71,-135.3"/>
</g>
</g>
</svg>
